<mxfile host="app.diagrams.net" agent="Mozilla/5.0 (Windows NT 10.0; Win64; x64) AppleWebKit/537.36 (KHTML, like Gecko) Chrome/135.0.0.0 Safari/537.36" version="26.2.14">
  <diagram name="Page-1" id="4ElHsP8_A76bfho-vP89">
    <mxGraphModel dx="2276" dy="777" grid="1" gridSize="10" guides="1" tooltips="1" connect="1" arrows="1" fold="1" page="1" pageScale="1" pageWidth="850" pageHeight="1100" math="0" shadow="0">
      <root>
        <mxCell id="0" />
        <mxCell id="1" parent="0" />
        <mxCell id="-2HW1WHJQLC2WsZrUzV0-1" value="&lt;span style=&quot;color: rgba(0, 0, 0, 0); font-family: sans-serif; font-size: 21.06px; font-variant-ligatures: common-ligatures; white-space: pre;&quot;&gt;employees&lt;/span&gt;" style="rounded=0;whiteSpace=wrap;html=1;" vertex="1" parent="1">
          <mxGeometry x="110" y="390" width="120" height="60" as="geometry" />
        </mxCell>
        <mxCell id="-2HW1WHJQLC2WsZrUzV0-2" value="&lt;span style=&quot;color: rgba(0, 0, 0, 0); font-family: sans-serif; font-size: 21.06px; font-variant-ligatures: common-ligatures; white-space: pre;&quot;&gt;departments&lt;/span&gt;" style="rounded=0;whiteSpace=wrap;html=1;" vertex="1" parent="1">
          <mxGeometry x="390" y="500" width="120" height="60" as="geometry" />
        </mxCell>
        <mxCell id="-2HW1WHJQLC2WsZrUzV0-3" value="&lt;span style=&quot;color: rgba(0, 0, 0, 0); font-family: sans-serif; font-size: 21.06px; font-variant-ligatures: common-ligatures; white-space: pre;&quot;&gt;projects &lt;/span&gt;" style="rounded=0;whiteSpace=wrap;html=1;" vertex="1" parent="1">
          <mxGeometry x="450" y="290" width="120" height="60" as="geometry" />
        </mxCell>
        <mxCell id="-2HW1WHJQLC2WsZrUzV0-4" value="Manage" style="rhombus;whiteSpace=wrap;html=1;" vertex="1" parent="1">
          <mxGeometry x="250" y="490" width="80" height="80" as="geometry" />
        </mxCell>
        <mxCell id="-2HW1WHJQLC2WsZrUzV0-5" value="Supervise" style="rhombus;whiteSpace=wrap;html=1;" vertex="1" parent="1">
          <mxGeometry x="130" y="530" width="80" height="80" as="geometry" />
        </mxCell>
        <mxCell id="-2HW1WHJQLC2WsZrUzV0-6" value="&lt;span style=&quot;color: rgba(0, 0, 0, 0); font-family: sans-serif; font-size: 21.06px; font-variant-ligatures: common-ligatures; white-space: pre;&quot;&gt; SSN&lt;/span&gt;" style="ellipse;whiteSpace=wrap;html=1;" vertex="1" parent="1">
          <mxGeometry x="-40" y="300" width="100" height="40" as="geometry" />
        </mxCell>
        <mxCell id="-2HW1WHJQLC2WsZrUzV0-9" value="&lt;span style=&quot;color: rgba(0, 0, 0, 0); font-family: sans-serif; font-size: 21.06px; font-variant-ligatures: common-ligatures; white-space: pre;&quot;&gt; Name&lt;/span&gt;" style="ellipse;whiteSpace=wrap;html=1;" vertex="1" parent="1">
          <mxGeometry x="-60" y="400" width="100" height="50" as="geometry" />
        </mxCell>
        <mxCell id="-2HW1WHJQLC2WsZrUzV0-10" value="Date of Birth" style="ellipse;whiteSpace=wrap;html=1;" vertex="1" parent="1">
          <mxGeometry y="560" width="100" height="40" as="geometry" />
        </mxCell>
        <mxCell id="-2HW1WHJQLC2WsZrUzV0-11" value="Gender" style="ellipse;whiteSpace=wrap;html=1;" vertex="1" parent="1">
          <mxGeometry x="50" y="250" width="90" height="40" as="geometry" />
        </mxCell>
        <mxCell id="-2HW1WHJQLC2WsZrUzV0-12" value="Lname" style="ellipse;whiteSpace=wrap;html=1;" vertex="1" parent="1">
          <mxGeometry x="-170" y="450" width="90" height="30" as="geometry" />
        </mxCell>
        <mxCell id="-2HW1WHJQLC2WsZrUzV0-13" value="Fname" style="ellipse;whiteSpace=wrap;html=1;" vertex="1" parent="1">
          <mxGeometry x="-180" y="370" width="80" height="50" as="geometry" />
        </mxCell>
        <mxCell id="-2HW1WHJQLC2WsZrUzV0-14" value="DNAME" style="ellipse;whiteSpace=wrap;html=1;" vertex="1" parent="1">
          <mxGeometry x="550" y="590" width="100" height="30" as="geometry" />
        </mxCell>
        <mxCell id="-2HW1WHJQLC2WsZrUzV0-15" value="DNUM" style="ellipse;whiteSpace=wrap;html=1;" vertex="1" parent="1">
          <mxGeometry x="570" y="510" width="100" height="40" as="geometry" />
        </mxCell>
        <mxCell id="-2HW1WHJQLC2WsZrUzV0-16" value="Locations" style="ellipse;whiteSpace=wrap;html=1;" vertex="1" parent="1">
          <mxGeometry x="420" y="640" width="110" height="30" as="geometry" />
        </mxCell>
        <mxCell id="-2HW1WHJQLC2WsZrUzV0-17" value="PNAME" style="ellipse;whiteSpace=wrap;html=1;" vertex="1" parent="1">
          <mxGeometry x="530" y="190" width="80" height="40" as="geometry" />
        </mxCell>
        <mxCell id="-2HW1WHJQLC2WsZrUzV0-18" value="PNUMBER" style="ellipse;whiteSpace=wrap;html=1;" vertex="1" parent="1">
          <mxGeometry x="620" y="230" width="90" height="40" as="geometry" />
        </mxCell>
        <mxCell id="-2HW1WHJQLC2WsZrUzV0-19" value="Location" style="ellipse;whiteSpace=wrap;html=1;" vertex="1" parent="1">
          <mxGeometry x="650" y="295" width="80" height="30" as="geometry" />
        </mxCell>
        <mxCell id="-2HW1WHJQLC2WsZrUzV0-20" value="Dependent" style="rounded=0;whiteSpace=wrap;html=1;labelBorderColor=default;" vertex="1" parent="1">
          <mxGeometry x="130" y="310" width="80" height="35" as="geometry" />
        </mxCell>
        <mxCell id="-2HW1WHJQLC2WsZrUzV0-21" value="DependentName" style="ellipse;whiteSpace=wrap;html=1;" vertex="1" parent="1">
          <mxGeometry x="150" y="195" width="110" height="30" as="geometry" />
        </mxCell>
        <mxCell id="-2HW1WHJQLC2WsZrUzV0-22" value="Gender" style="ellipse;whiteSpace=wrap;html=1;" vertex="1" parent="1">
          <mxGeometry x="-10" y="490" width="60" height="40" as="geometry" />
        </mxCell>
        <mxCell id="-2HW1WHJQLC2WsZrUzV0-23" value="Birth Date" style="ellipse;whiteSpace=wrap;html=1;" vertex="1" parent="1">
          <mxGeometry x="230" y="245" width="80" height="50" as="geometry" />
        </mxCell>
        <mxCell id="-2HW1WHJQLC2WsZrUzV0-25" value="" style="endArrow=none;html=1;rounded=0;exitX=1;exitY=0.5;exitDx=0;exitDy=0;entryX=0;entryY=0.5;entryDx=0;entryDy=0;" edge="1" parent="1" source="-2HW1WHJQLC2WsZrUzV0-13" target="-2HW1WHJQLC2WsZrUzV0-9">
          <mxGeometry width="50" height="50" relative="1" as="geometry">
            <mxPoint x="400" y="480" as="sourcePoint" />
            <mxPoint x="450" y="430" as="targetPoint" />
          </mxGeometry>
        </mxCell>
        <mxCell id="-2HW1WHJQLC2WsZrUzV0-26" value="" style="endArrow=none;html=1;rounded=0;entryX=0;entryY=0.5;entryDx=0;entryDy=0;exitX=1;exitY=0;exitDx=0;exitDy=0;" edge="1" parent="1" source="-2HW1WHJQLC2WsZrUzV0-12" target="-2HW1WHJQLC2WsZrUzV0-9">
          <mxGeometry width="50" height="50" relative="1" as="geometry">
            <mxPoint x="-80" y="510" as="sourcePoint" />
            <mxPoint x="-30" y="460" as="targetPoint" />
          </mxGeometry>
        </mxCell>
        <mxCell id="-2HW1WHJQLC2WsZrUzV0-27" value="" style="endArrow=none;html=1;rounded=0;exitX=1;exitY=0.5;exitDx=0;exitDy=0;entryX=0;entryY=0.5;entryDx=0;entryDy=0;" edge="1" parent="1" source="-2HW1WHJQLC2WsZrUzV0-9" target="-2HW1WHJQLC2WsZrUzV0-1">
          <mxGeometry width="50" height="50" relative="1" as="geometry">
            <mxPoint x="50" y="430" as="sourcePoint" />
            <mxPoint x="100" y="380" as="targetPoint" />
          </mxGeometry>
        </mxCell>
        <mxCell id="-2HW1WHJQLC2WsZrUzV0-28" value="" style="endArrow=none;html=1;rounded=0;entryX=0;entryY=0;entryDx=0;entryDy=0;exitX=1;exitY=1;exitDx=0;exitDy=0;" edge="1" parent="1" source="-2HW1WHJQLC2WsZrUzV0-6" target="-2HW1WHJQLC2WsZrUzV0-1">
          <mxGeometry width="50" height="50" relative="1" as="geometry">
            <mxPoint x="40" y="390" as="sourcePoint" />
            <mxPoint x="90" y="340" as="targetPoint" />
          </mxGeometry>
        </mxCell>
        <mxCell id="-2HW1WHJQLC2WsZrUzV0-29" value="" style="endArrow=none;html=1;rounded=0;entryX=0.25;entryY=1;entryDx=0;entryDy=0;exitX=1;exitY=0;exitDx=0;exitDy=0;" edge="1" parent="1" source="-2HW1WHJQLC2WsZrUzV0-10" target="-2HW1WHJQLC2WsZrUzV0-1">
          <mxGeometry width="50" height="50" relative="1" as="geometry">
            <mxPoint x="100" y="510" as="sourcePoint" />
            <mxPoint x="150" y="460" as="targetPoint" />
          </mxGeometry>
        </mxCell>
        <mxCell id="-2HW1WHJQLC2WsZrUzV0-30" value="" style="endArrow=none;html=1;rounded=0;entryX=1;entryY=1;entryDx=0;entryDy=0;" edge="1" parent="1" source="-2HW1WHJQLC2WsZrUzV0-4" target="-2HW1WHJQLC2WsZrUzV0-1">
          <mxGeometry width="50" height="50" relative="1" as="geometry">
            <mxPoint x="260" y="479.28932188134524" as="sourcePoint" />
            <mxPoint x="260" y="429.28932188134524" as="targetPoint" />
          </mxGeometry>
        </mxCell>
        <mxCell id="-2HW1WHJQLC2WsZrUzV0-58" value="1" style="edgeLabel;html=1;align=center;verticalAlign=middle;resizable=0;points=[];" vertex="1" connectable="0" parent="-2HW1WHJQLC2WsZrUzV0-30">
          <mxGeometry x="0.076" y="1" relative="1" as="geometry">
            <mxPoint as="offset" />
          </mxGeometry>
        </mxCell>
        <mxCell id="-2HW1WHJQLC2WsZrUzV0-31" value="" style="endArrow=none;html=1;rounded=0;exitX=1;exitY=0.5;exitDx=0;exitDy=0;entryX=0;entryY=0.5;entryDx=0;entryDy=0;" edge="1" parent="1" source="-2HW1WHJQLC2WsZrUzV0-4" target="-2HW1WHJQLC2WsZrUzV0-2">
          <mxGeometry width="50" height="50" relative="1" as="geometry">
            <mxPoint x="310" y="550" as="sourcePoint" />
            <mxPoint x="360" y="500" as="targetPoint" />
          </mxGeometry>
        </mxCell>
        <mxCell id="-2HW1WHJQLC2WsZrUzV0-59" value="1" style="edgeLabel;html=1;align=center;verticalAlign=middle;resizable=0;points=[];" vertex="1" connectable="0" parent="-2HW1WHJQLC2WsZrUzV0-31">
          <mxGeometry relative="1" as="geometry">
            <mxPoint as="offset" />
          </mxGeometry>
        </mxCell>
        <mxCell id="-2HW1WHJQLC2WsZrUzV0-34" value="" style="endArrow=none;html=1;rounded=0;exitX=1;exitY=0.75;exitDx=0;exitDy=0;entryX=0;entryY=0.5;entryDx=0;entryDy=0;" edge="1" parent="1" source="-2HW1WHJQLC2WsZrUzV0-3" target="-2HW1WHJQLC2WsZrUzV0-19">
          <mxGeometry width="50" height="50" relative="1" as="geometry">
            <mxPoint x="540" y="355" as="sourcePoint" />
            <mxPoint x="640" y="295" as="targetPoint" />
          </mxGeometry>
        </mxCell>
        <mxCell id="-2HW1WHJQLC2WsZrUzV0-35" value="" style="endArrow=none;html=1;rounded=0;exitX=1;exitY=0;exitDx=0;exitDy=0;entryX=0;entryY=1;entryDx=0;entryDy=0;" edge="1" parent="1" source="-2HW1WHJQLC2WsZrUzV0-3" target="-2HW1WHJQLC2WsZrUzV0-18">
          <mxGeometry width="50" height="50" relative="1" as="geometry">
            <mxPoint x="540" y="325" as="sourcePoint" />
            <mxPoint x="600" y="265" as="targetPoint" />
          </mxGeometry>
        </mxCell>
        <mxCell id="-2HW1WHJQLC2WsZrUzV0-36" value="" style="endArrow=none;html=1;rounded=0;exitX=0.75;exitY=0;exitDx=0;exitDy=0;entryX=0;entryY=1;entryDx=0;entryDy=0;" edge="1" parent="1" source="-2HW1WHJQLC2WsZrUzV0-3" target="-2HW1WHJQLC2WsZrUzV0-17">
          <mxGeometry width="50" height="50" relative="1" as="geometry">
            <mxPoint x="610" y="300" as="sourcePoint" />
            <mxPoint x="660" y="250" as="targetPoint" />
          </mxGeometry>
        </mxCell>
        <mxCell id="-2HW1WHJQLC2WsZrUzV0-37" value="" style="endArrow=none;html=1;rounded=0;entryX=0;entryY=0.5;entryDx=0;entryDy=0;exitX=1;exitY=0.5;exitDx=0;exitDy=0;" edge="1" parent="1" source="-2HW1WHJQLC2WsZrUzV0-2" target="-2HW1WHJQLC2WsZrUzV0-15">
          <mxGeometry width="50" height="50" relative="1" as="geometry">
            <mxPoint x="400" y="480" as="sourcePoint" />
            <mxPoint x="450" y="430" as="targetPoint" />
          </mxGeometry>
        </mxCell>
        <mxCell id="-2HW1WHJQLC2WsZrUzV0-38" value="" style="endArrow=none;html=1;rounded=0;exitX=1;exitY=1;exitDx=0;exitDy=0;entryX=0;entryY=0;entryDx=0;entryDy=0;" edge="1" parent="1" source="-2HW1WHJQLC2WsZrUzV0-2" target="-2HW1WHJQLC2WsZrUzV0-14">
          <mxGeometry width="50" height="50" relative="1" as="geometry">
            <mxPoint x="400" y="480" as="sourcePoint" />
            <mxPoint x="450" y="430" as="targetPoint" />
          </mxGeometry>
        </mxCell>
        <mxCell id="-2HW1WHJQLC2WsZrUzV0-40" value="" style="endArrow=none;html=1;rounded=0;entryX=0.75;entryY=1;entryDx=0;entryDy=0;exitX=0.5;exitY=0;exitDx=0;exitDy=0;" edge="1" parent="1" source="-2HW1WHJQLC2WsZrUzV0-16" target="-2HW1WHJQLC2WsZrUzV0-2">
          <mxGeometry width="50" height="50" relative="1" as="geometry">
            <mxPoint x="410" y="620" as="sourcePoint" />
            <mxPoint x="460" y="570" as="targetPoint" />
          </mxGeometry>
        </mxCell>
        <mxCell id="-2HW1WHJQLC2WsZrUzV0-42" value="" style="endArrow=none;html=1;rounded=0;entryX=1;entryY=1;entryDx=0;entryDy=0;" edge="1" parent="1" target="-2HW1WHJQLC2WsZrUzV0-11">
          <mxGeometry width="50" height="50" relative="1" as="geometry">
            <mxPoint x="170" y="310" as="sourcePoint" />
            <mxPoint x="220" y="260" as="targetPoint" />
          </mxGeometry>
        </mxCell>
        <mxCell id="-2HW1WHJQLC2WsZrUzV0-43" value="" style="endArrow=none;html=1;rounded=0;exitX=0.5;exitY=0;exitDx=0;exitDy=0;entryX=0.5;entryY=1;entryDx=0;entryDy=0;" edge="1" parent="1" source="-2HW1WHJQLC2WsZrUzV0-20" target="-2HW1WHJQLC2WsZrUzV0-21">
          <mxGeometry width="50" height="50" relative="1" as="geometry">
            <mxPoint x="180" y="310" as="sourcePoint" />
            <mxPoint x="230" y="260" as="targetPoint" />
          </mxGeometry>
        </mxCell>
        <mxCell id="-2HW1WHJQLC2WsZrUzV0-44" value="" style="endArrow=none;html=1;rounded=0;entryX=0;entryY=1;entryDx=0;entryDy=0;exitX=1;exitY=0;exitDx=0;exitDy=0;" edge="1" parent="1" source="-2HW1WHJQLC2WsZrUzV0-22" target="-2HW1WHJQLC2WsZrUzV0-1">
          <mxGeometry width="50" height="50" relative="1" as="geometry">
            <mxPoint x="50" y="500" as="sourcePoint" />
            <mxPoint x="100" y="450" as="targetPoint" />
          </mxGeometry>
        </mxCell>
        <mxCell id="-2HW1WHJQLC2WsZrUzV0-45" value="" style="endArrow=none;html=1;rounded=0;exitX=1;exitY=0;exitDx=0;exitDy=0;entryX=0;entryY=1;entryDx=0;entryDy=0;" edge="1" parent="1" source="-2HW1WHJQLC2WsZrUzV0-20" target="-2HW1WHJQLC2WsZrUzV0-23">
          <mxGeometry width="50" height="50" relative="1" as="geometry">
            <mxPoint x="230" y="330" as="sourcePoint" />
            <mxPoint x="280" y="280" as="targetPoint" />
          </mxGeometry>
        </mxCell>
        <mxCell id="-2HW1WHJQLC2WsZrUzV0-46" value="Hiring Date" style="ellipse;whiteSpace=wrap;html=1;" vertex="1" parent="1">
          <mxGeometry x="250" y="630" width="80" height="40" as="geometry" />
        </mxCell>
        <mxCell id="-2HW1WHJQLC2WsZrUzV0-47" value="" style="endArrow=none;html=1;rounded=0;entryX=0.5;entryY=1;entryDx=0;entryDy=0;exitX=0.5;exitY=0;exitDx=0;exitDy=0;" edge="1" parent="1" source="-2HW1WHJQLC2WsZrUzV0-46" target="-2HW1WHJQLC2WsZrUzV0-4">
          <mxGeometry width="50" height="50" relative="1" as="geometry">
            <mxPoint x="190" y="640" as="sourcePoint" />
            <mxPoint x="240" y="590" as="targetPoint" />
          </mxGeometry>
        </mxCell>
        <mxCell id="-2HW1WHJQLC2WsZrUzV0-48" value="Work" style="rhombus;whiteSpace=wrap;html=1;" vertex="1" parent="1">
          <mxGeometry x="300" y="320" width="80" height="80" as="geometry" />
        </mxCell>
        <mxCell id="-2HW1WHJQLC2WsZrUzV0-50" value="" style="endArrow=none;html=1;rounded=0;exitX=1;exitY=0.5;exitDx=0;exitDy=0;entryX=0;entryY=0.5;entryDx=0;entryDy=0;" edge="1" parent="1" source="-2HW1WHJQLC2WsZrUzV0-48" target="-2HW1WHJQLC2WsZrUzV0-3">
          <mxGeometry width="50" height="50" relative="1" as="geometry">
            <mxPoint x="420" y="430" as="sourcePoint" />
            <mxPoint x="470" y="380" as="targetPoint" />
          </mxGeometry>
        </mxCell>
        <mxCell id="-2HW1WHJQLC2WsZrUzV0-61" value="1" style="edgeLabel;html=1;align=center;verticalAlign=middle;resizable=0;points=[];" vertex="1" connectable="0" parent="-2HW1WHJQLC2WsZrUzV0-50">
          <mxGeometry x="-0.08" y="-2" relative="1" as="geometry">
            <mxPoint as="offset" />
          </mxGeometry>
        </mxCell>
        <mxCell id="-2HW1WHJQLC2WsZrUzV0-52" value="Have" style="rhombus;whiteSpace=wrap;html=1;" vertex="1" parent="1">
          <mxGeometry x="450" y="380" width="80" height="80" as="geometry" />
        </mxCell>
        <mxCell id="-2HW1WHJQLC2WsZrUzV0-54" value="" style="endArrow=none;html=1;rounded=0;exitX=0.75;exitY=0;exitDx=0;exitDy=0;entryX=0;entryY=0.5;entryDx=0;entryDy=0;" edge="1" parent="1" source="-2HW1WHJQLC2WsZrUzV0-2" target="-2HW1WHJQLC2WsZrUzV0-52">
          <mxGeometry width="50" height="50" relative="1" as="geometry">
            <mxPoint x="550" y="490" as="sourcePoint" />
            <mxPoint x="600" y="440" as="targetPoint" />
          </mxGeometry>
        </mxCell>
        <mxCell id="-2HW1WHJQLC2WsZrUzV0-57" value="1" style="edgeLabel;html=1;align=center;verticalAlign=middle;resizable=0;points=[];" vertex="1" connectable="0" parent="-2HW1WHJQLC2WsZrUzV0-54">
          <mxGeometry x="-0.3096" y="2" relative="1" as="geometry">
            <mxPoint y="-1" as="offset" />
          </mxGeometry>
        </mxCell>
        <mxCell id="-2HW1WHJQLC2WsZrUzV0-65" value="" style="shape=link;html=1;rounded=0;exitX=0.5;exitY=1;exitDx=0;exitDy=0;entryX=0.5;entryY=0;entryDx=0;entryDy=0;" edge="1" parent="1" source="-2HW1WHJQLC2WsZrUzV0-20" target="-2HW1WHJQLC2WsZrUzV0-1">
          <mxGeometry width="100" relative="1" as="geometry">
            <mxPoint x="140" y="370" as="sourcePoint" />
            <mxPoint x="240" y="370" as="targetPoint" />
          </mxGeometry>
        </mxCell>
        <mxCell id="-2HW1WHJQLC2WsZrUzV0-66" value="" style="shape=link;html=1;rounded=0;exitX=0.75;exitY=1;exitDx=0;exitDy=0;entryX=1;entryY=0;entryDx=0;entryDy=0;" edge="1" parent="1" source="-2HW1WHJQLC2WsZrUzV0-3" target="-2HW1WHJQLC2WsZrUzV0-52">
          <mxGeometry width="100" relative="1" as="geometry">
            <mxPoint x="550" y="400" as="sourcePoint" />
            <mxPoint x="650" y="400" as="targetPoint" />
          </mxGeometry>
        </mxCell>
        <mxCell id="-2HW1WHJQLC2WsZrUzV0-67" value="M" style="edgeLabel;html=1;align=center;verticalAlign=middle;resizable=0;points=[];" vertex="1" connectable="0" parent="-2HW1WHJQLC2WsZrUzV0-66">
          <mxGeometry x="-0.1059" y="-1" relative="1" as="geometry">
            <mxPoint as="offset" />
          </mxGeometry>
        </mxCell>
        <mxCell id="-2HW1WHJQLC2WsZrUzV0-68" value="emplyee" style="swimlane;whiteSpace=wrap;html=1;" vertex="1" parent="1">
          <mxGeometry x="-50" y="740" width="430" height="100" as="geometry" />
        </mxCell>
        <mxCell id="-2HW1WHJQLC2WsZrUzV0-69" value="Name" style="rounded=0;whiteSpace=wrap;html=1;" vertex="1" parent="-2HW1WHJQLC2WsZrUzV0-68">
          <mxGeometry x="60" y="20" width="80" height="30" as="geometry" />
        </mxCell>
        <mxCell id="-2HW1WHJQLC2WsZrUzV0-70" value="Lname" style="rounded=0;whiteSpace=wrap;html=1;" vertex="1" parent="-2HW1WHJQLC2WsZrUzV0-68">
          <mxGeometry x="100" y="50" width="40" height="30" as="geometry" />
        </mxCell>
        <mxCell id="-2HW1WHJQLC2WsZrUzV0-71" value="Fname" style="rounded=0;whiteSpace=wrap;html=1;" vertex="1" parent="-2HW1WHJQLC2WsZrUzV0-68">
          <mxGeometry x="60" y="50" width="40" height="30" as="geometry" />
        </mxCell>
        <mxCell id="-2HW1WHJQLC2WsZrUzV0-72" value="SSN" style="rounded=0;whiteSpace=wrap;html=1;" vertex="1" parent="-2HW1WHJQLC2WsZrUzV0-68">
          <mxGeometry y="20" width="60" height="30" as="geometry" />
        </mxCell>
        <mxCell id="-2HW1WHJQLC2WsZrUzV0-77" value="Gender" style="rounded=0;whiteSpace=wrap;html=1;" vertex="1" parent="-2HW1WHJQLC2WsZrUzV0-68">
          <mxGeometry x="140" y="20" width="60" height="30" as="geometry" />
        </mxCell>
        <mxCell id="-2HW1WHJQLC2WsZrUzV0-78" value="Date Of Birth" style="rounded=0;whiteSpace=wrap;html=1;" vertex="1" parent="-2HW1WHJQLC2WsZrUzV0-68">
          <mxGeometry x="200" y="20" width="80" height="30" as="geometry" />
        </mxCell>
        <mxCell id="-2HW1WHJQLC2WsZrUzV0-82" value="DNUM" style="rounded=0;whiteSpace=wrap;html=1;" vertex="1" parent="-2HW1WHJQLC2WsZrUzV0-68">
          <mxGeometry x="280" y="20" width="70" height="30" as="geometry" />
        </mxCell>
        <mxCell id="-2HW1WHJQLC2WsZrUzV0-83" value="Supervisor" style="rounded=0;whiteSpace=wrap;html=1;" vertex="1" parent="-2HW1WHJQLC2WsZrUzV0-68">
          <mxGeometry x="350" y="20" width="80" height="30" as="geometry" />
        </mxCell>
        <mxCell id="-2HW1WHJQLC2WsZrUzV0-73" value="" style="shape=link;html=1;rounded=0;exitX=1;exitY=0;exitDx=0;exitDy=0;entryX=0;entryY=0.5;entryDx=0;entryDy=0;" edge="1" parent="1" source="-2HW1WHJQLC2WsZrUzV0-1" target="-2HW1WHJQLC2WsZrUzV0-48">
          <mxGeometry width="100" relative="1" as="geometry">
            <mxPoint x="230" y="350" as="sourcePoint" />
            <mxPoint x="330" y="350" as="targetPoint" />
          </mxGeometry>
        </mxCell>
        <mxCell id="-2HW1WHJQLC2WsZrUzV0-74" value="M" style="edgeLabel;html=1;align=center;verticalAlign=middle;resizable=0;points=[];" vertex="1" connectable="0" parent="-2HW1WHJQLC2WsZrUzV0-73">
          <mxGeometry x="0.0034" y="-2" relative="1" as="geometry">
            <mxPoint as="offset" />
          </mxGeometry>
        </mxCell>
        <mxCell id="-2HW1WHJQLC2WsZrUzV0-75" value="" style="shape=link;html=1;rounded=0;exitX=0.5;exitY=1;exitDx=0;exitDy=0;entryX=0.5;entryY=0;entryDx=0;entryDy=0;" edge="1" parent="1" source="-2HW1WHJQLC2WsZrUzV0-1" target="-2HW1WHJQLC2WsZrUzV0-5">
          <mxGeometry width="100" relative="1" as="geometry">
            <mxPoint x="110" y="540" as="sourcePoint" />
            <mxPoint x="210" y="540" as="targetPoint" />
          </mxGeometry>
        </mxCell>
        <mxCell id="-2HW1WHJQLC2WsZrUzV0-76" value="1" style="edgeLabel;html=1;align=center;verticalAlign=middle;resizable=0;points=[];" vertex="1" connectable="0" parent="-2HW1WHJQLC2WsZrUzV0-75">
          <mxGeometry x="-0.05" y="3" relative="1" as="geometry">
            <mxPoint x="-3" y="2" as="offset" />
          </mxGeometry>
        </mxCell>
        <mxCell id="-2HW1WHJQLC2WsZrUzV0-79" value="Dependent" style="swimlane;whiteSpace=wrap;html=1;" vertex="1" parent="1">
          <mxGeometry x="-370" y="740" width="300" height="100" as="geometry" />
        </mxCell>
        <mxCell id="-2HW1WHJQLC2WsZrUzV0-84" value="DependentName" style="rounded=0;whiteSpace=wrap;html=1;" vertex="1" parent="-2HW1WHJQLC2WsZrUzV0-79">
          <mxGeometry y="20" width="100" height="30" as="geometry" />
        </mxCell>
        <mxCell id="-2HW1WHJQLC2WsZrUzV0-85" value="Gender" style="rounded=0;whiteSpace=wrap;html=1;" vertex="1" parent="-2HW1WHJQLC2WsZrUzV0-79">
          <mxGeometry x="100" y="20" width="70" height="30" as="geometry" />
        </mxCell>
        <mxCell id="-2HW1WHJQLC2WsZrUzV0-86" value="Birth Date" style="rounded=0;whiteSpace=wrap;html=1;" vertex="1" parent="-2HW1WHJQLC2WsZrUzV0-79">
          <mxGeometry x="170" y="20" width="70" height="30" as="geometry" />
        </mxCell>
        <mxCell id="-2HW1WHJQLC2WsZrUzV0-87" value="SSN" style="rounded=0;whiteSpace=wrap;html=1;" vertex="1" parent="-2HW1WHJQLC2WsZrUzV0-79">
          <mxGeometry x="240" y="20" width="60" height="30" as="geometry" />
        </mxCell>
        <mxCell id="-2HW1WHJQLC2WsZrUzV0-80" value="" style="endArrow=none;html=1;rounded=0;entryX=0.75;entryY=1;entryDx=0;entryDy=0;exitX=0.888;exitY=0.4;exitDx=0;exitDy=0;exitPerimeter=0;" edge="1" parent="1" source="-2HW1WHJQLC2WsZrUzV0-5" target="-2HW1WHJQLC2WsZrUzV0-1">
          <mxGeometry width="50" height="50" relative="1" as="geometry">
            <mxPoint x="180" y="540" as="sourcePoint" />
            <mxPoint x="230" y="490" as="targetPoint" />
          </mxGeometry>
        </mxCell>
        <mxCell id="-2HW1WHJQLC2WsZrUzV0-81" value="M" style="edgeLabel;html=1;align=center;verticalAlign=middle;resizable=0;points=[];" vertex="1" connectable="0" parent="-2HW1WHJQLC2WsZrUzV0-80">
          <mxGeometry x="-0.0356" y="1" relative="1" as="geometry">
            <mxPoint as="offset" />
          </mxGeometry>
        </mxCell>
        <mxCell id="-2HW1WHJQLC2WsZrUzV0-89" value="Departments" style="swimlane;whiteSpace=wrap;html=1;" vertex="1" parent="1">
          <mxGeometry x="570" y="740" width="270" height="100" as="geometry" />
        </mxCell>
        <mxCell id="-2HW1WHJQLC2WsZrUzV0-90" value="DNUM" style="rounded=0;whiteSpace=wrap;html=1;" vertex="1" parent="-2HW1WHJQLC2WsZrUzV0-89">
          <mxGeometry y="20" width="60" height="30" as="geometry" />
        </mxCell>
        <mxCell id="-2HW1WHJQLC2WsZrUzV0-91" value="DNAME" style="rounded=0;whiteSpace=wrap;html=1;" vertex="1" parent="-2HW1WHJQLC2WsZrUzV0-89">
          <mxGeometry x="60" y="20" width="60" height="30" as="geometry" />
        </mxCell>
        <mxCell id="-2HW1WHJQLC2WsZrUzV0-92" value="Locations" style="rounded=0;whiteSpace=wrap;html=1;" vertex="1" parent="-2HW1WHJQLC2WsZrUzV0-89">
          <mxGeometry x="120" y="20" width="70" height="30" as="geometry" />
        </mxCell>
        <mxCell id="-2HW1WHJQLC2WsZrUzV0-93" value="PNUMBER" style="rounded=0;whiteSpace=wrap;html=1;" vertex="1" parent="-2HW1WHJQLC2WsZrUzV0-89">
          <mxGeometry x="190" y="20" width="80" height="30" as="geometry" />
        </mxCell>
        <mxCell id="-2HW1WHJQLC2WsZrUzV0-94" value="Projects" style="swimlane;whiteSpace=wrap;html=1;" vertex="1" parent="1">
          <mxGeometry x="860" y="740" width="220" height="100" as="geometry" />
        </mxCell>
        <mxCell id="-2HW1WHJQLC2WsZrUzV0-95" value="PNUMBER" style="rounded=0;whiteSpace=wrap;html=1;" vertex="1" parent="-2HW1WHJQLC2WsZrUzV0-94">
          <mxGeometry y="20" width="80" height="30" as="geometry" />
        </mxCell>
        <mxCell id="-2HW1WHJQLC2WsZrUzV0-96" value="PNAME" style="rounded=0;whiteSpace=wrap;html=1;" vertex="1" parent="-2HW1WHJQLC2WsZrUzV0-94">
          <mxGeometry x="80" y="20" width="70" height="30" as="geometry" />
        </mxCell>
        <mxCell id="-2HW1WHJQLC2WsZrUzV0-97" value="Location" style="rounded=0;whiteSpace=wrap;html=1;" vertex="1" parent="-2HW1WHJQLC2WsZrUzV0-94">
          <mxGeometry x="150" y="20" width="70" height="30" as="geometry" />
        </mxCell>
        <mxCell id="-2HW1WHJQLC2WsZrUzV0-99" value="Manage" style="swimlane;whiteSpace=wrap;html=1;" vertex="1" parent="1">
          <mxGeometry x="405" y="740" width="140" height="100" as="geometry" />
        </mxCell>
        <mxCell id="-2HW1WHJQLC2WsZrUzV0-100" value="SSN" style="rounded=0;whiteSpace=wrap;html=1;" vertex="1" parent="-2HW1WHJQLC2WsZrUzV0-99">
          <mxGeometry y="20" width="70" height="30" as="geometry" />
        </mxCell>
        <mxCell id="-2HW1WHJQLC2WsZrUzV0-101" value="DNUM" style="rounded=0;whiteSpace=wrap;html=1;" vertex="1" parent="-2HW1WHJQLC2WsZrUzV0-99">
          <mxGeometry x="70" y="20" width="70" height="30" as="geometry" />
        </mxCell>
        <mxCell id="-2HW1WHJQLC2WsZrUzV0-103" value="" style="endArrow=none;html=1;rounded=0;exitX=0.5;exitY=0;exitDx=0;exitDy=0;entryX=0.5;entryY=0;entryDx=0;entryDy=0;" edge="1" parent="1" source="-2HW1WHJQLC2WsZrUzV0-72" target="-2HW1WHJQLC2WsZrUzV0-87">
          <mxGeometry width="50" height="50" relative="1" as="geometry">
            <mxPoint x="-60" y="720" as="sourcePoint" />
            <mxPoint x="-10" y="670" as="targetPoint" />
            <Array as="points">
              <mxPoint x="-20" y="670" />
              <mxPoint x="-100" y="670" />
            </Array>
          </mxGeometry>
        </mxCell>
        <mxCell id="-2HW1WHJQLC2WsZrUzV0-104" value="" style="endArrow=none;html=1;rounded=0;entryX=0.5;entryY=1;entryDx=0;entryDy=0;exitX=0.5;exitY=1;exitDx=0;exitDy=0;" edge="1" parent="1" source="-2HW1WHJQLC2WsZrUzV0-101" target="-2HW1WHJQLC2WsZrUzV0-72">
          <mxGeometry width="50" height="50" relative="1" as="geometry">
            <mxPoint x="220" y="940" as="sourcePoint" />
            <mxPoint x="270" y="890" as="targetPoint" />
            <Array as="points">
              <mxPoint x="510" y="890" />
              <mxPoint x="-20" y="890" />
            </Array>
          </mxGeometry>
        </mxCell>
        <mxCell id="-2HW1WHJQLC2WsZrUzV0-105" value="" style="endArrow=none;html=1;rounded=0;exitX=0.75;exitY=0;exitDx=0;exitDy=0;entryX=0.5;entryY=0;entryDx=0;entryDy=0;" edge="1" parent="1" source="-2HW1WHJQLC2WsZrUzV0-101" target="-2HW1WHJQLC2WsZrUzV0-90">
          <mxGeometry width="50" height="50" relative="1" as="geometry">
            <mxPoint x="550" y="710" as="sourcePoint" />
            <mxPoint x="600" y="660" as="targetPoint" />
            <Array as="points">
              <mxPoint x="528" y="700" />
              <mxPoint x="600" y="700" />
            </Array>
          </mxGeometry>
        </mxCell>
        <mxCell id="-2HW1WHJQLC2WsZrUzV0-106" value="" style="endArrow=none;html=1;rounded=0;entryX=0.5;entryY=1;entryDx=0;entryDy=0;exitX=0.5;exitY=1;exitDx=0;exitDy=0;" edge="1" parent="1" source="-2HW1WHJQLC2WsZrUzV0-95" target="-2HW1WHJQLC2WsZrUzV0-93">
          <mxGeometry width="50" height="50" relative="1" as="geometry">
            <mxPoint x="770" y="940" as="sourcePoint" />
            <mxPoint x="820" y="890" as="targetPoint" />
            <Array as="points">
              <mxPoint x="900" y="890" />
              <mxPoint x="800" y="890" />
            </Array>
          </mxGeometry>
        </mxCell>
      </root>
    </mxGraphModel>
  </diagram>
</mxfile>
